# xmcd CD database file
#
# Track frame offsets:
#	150
#	13537
#	27202
#	38391
#	52355
#	63226
#	78481
#	91765
#	107442
#	118627
#	140480
#	152109
#	165068
#
# Disc length: 2399 seconds
#
# Revision: 0
# Processed by: cddbd v1.5.2PL0 Copyright (c) Steve Scherf et al.
# Submitted via: CDex 1.51
#
DISCID=92095d0d
DTITLE=Milwaukee - Comme une étoile
DYEAR=2003
DGENRE=Country
TTITLE0=Milwaukee
TTITLE1=Teenage Heaven
TTITLE2=Comme une étoile
TTITLE3=Rêver de Memphis
TTITLE4=You're Sixteen
TTITLE5=Over the rainbow
TTITLE6=Settin' the wood on fire
TTITLE7=Wille the circle be unbroken
TTITLE8=Voyage dans le temps
TTITLE9=Regards
TTITLE10=Blue days, Black nights
TTITLE11=Putain de vie
TTITLE12=Lonely summer night
EXTD=YEAR: 2003
EXTT0=
EXTT1=
EXTT2=
EXTT3=
EXTT4=
EXTT5=
EXTT6=
EXTT7=
EXTT8=
EXTT9=
EXTT10=
EXTT11=
EXTT12=
PLAYORDER=
